<?xml version="1.0" standalone="no"?>
<!DOCTYPE svg PUBLIC "-//W3C//DTD SVG 20010904//EN"
 "http://www.w3.org/TR/2001/REC-SVG-20010904/DTD/svg10.dtd">
<svg version="1.0" xmlns="http://www.w3.org/2000/svg"
 width="805.000000pt" height="256.000000pt" viewBox="0 0 805.000000 256.000000"
 preserveAspectRatio="xMidYMid meet">

<g transform="translate(0.000000,256.000000) scale(0.100000,-0.100000)"
fill="#000000" stroke="none">
<path d="M2983 2341 c-63 -23 -97 -48 -133 -99 -32 -44 -50 -93 -50 -136 0
-43 30 -123 57 -152 12 -13 19 -24 16 -24 -3 0 18 -24 47 -54 30 -30 58 -53
62 -50 5 3 7 2 6 -3 -2 -4 2 -10 7 -12 6 -2 16 -12 24 -23 7 -11 20 -17 28
-14 8 3 12 2 9 -3 -10 -15 84 -78 107 -72 5 1 6 -3 3 -8 -3 -5 1 -14 9 -21 8
-7 15 -9 15 -4 0 5 5 1 11 -9 6 -9 15 -15 20 -11 5 3 9 2 8 -3 -3 -20 2 -25
15 -14 11 9 16 9 22 0 4 -8 3 -9 -4 -5 -27 16 -9 -13 29 -49 86 -82 131 -175
143 -289 5 -53 -15 -213 -29 -236 -3 -5 -4 -10 -1 -10 11 0 65 119 80 177 18
67 21 169 7 205 -5 13 -10 28 -11 33 -6 29 -45 89 -80 126 -35 37 -41 40 -57
28 -16 -12 -17 -12 -5 2 10 14 4 23 -45 65 -31 27 -60 48 -65 46 -4 -1 -8 2
-8 6 0 5 -39 41 -87 79 -49 39 -104 84 -123 101 -19 17 -39 28 -44 25 -5 -3
-6 -1 -3 4 4 6 -7 28 -24 49 -53 67 -72 113 -70 173 5 152 139 213 297 136 54
-27 133 -106 142 -142 13 -55 13 -132 -2 -167 -11 -25 -12 -35 -3 -31 7 4 5 1
-3 -7 -8 -7 -22 -22 -30 -32 -14 -18 -14 -19 10 -6 38 19 70 52 63 63 -3 6 -1
7 5 3 23 -14 46 55 43 124 -2 36 -4 99 -5 141 l-1 77 -95 5 c-100 5 -118 8
-136 20 -29 18 -120 17 -171 -2z m338 -724 c-10 -9 -11 -8 -5 6 3 10 9 15 12
12 3 -3 0 -11 -7 -18z"/>
<path d="M2672 2272 c-90 -168 -77 -365 32 -475 51 -52 118 -111 161 -142 164
-120 323 -273 356 -343 12 -27 21 -66 21 -97 1 -135 -106 -203 -248 -159 -32
10 -64 18 -71 17 -7 0 -11 4 -10 9 1 5 -7 15 -17 21 -11 7 -31 24 -44 40 -13
15 -28 25 -33 22 -5 -4 -6 1 -3 10 4 8 1 22 -6 29 -6 8 -14 39 -17 69 -6 59
14 136 44 169 13 14 13 18 2 18 -23 0 -91 -61 -85 -76 3 -8 0 -13 -7 -11 -20
4 -34 -80 -24 -152 5 -36 7 -90 5 -118 l-5 -53 74 0 c43 0 103 -8 145 -20 87
-24 114 -25 183 -5 36 11 69 30 101 60 42 40 46 46 33 61 -12 16 -12 17 3 11
23 -8 36 17 44 84 4 36 1 68 -9 95 -22 61 -66 126 -79 118 -6 -4 -8 -3 -5 3 7
12 -91 113 -110 113 -7 0 -16 6 -20 13 -16 26 -193 148 -204 141 -7 -4 -9 -3
-6 3 3 5 -24 41 -61 79 -68 70 -103 127 -121 199 -15 57 -13 189 3 260 8 33
13 61 12 63 -2 1 -17 -24 -34 -56z"/>
<path d="M6155 1877 c-79 -21 -155 -65 -210 -122 -57 -60 -106 -150 -108 -201
-1 -19 -5 -34 -9 -34 -12 0 -10 -114 2 -145 5 -14 12 -40 15 -57 11 -62 95
-185 118 -171 5 3 7 2 4 -4 -13 -21 81 -82 104 -68 8 5 10 4 5 -3 -10 -17 45
-41 122 -52 183 -26 378 80 453 246 91 201 29 419 -161 557 -74 53 -236 79
-335 54z m237 -43 c22 -8 45 -11 52 -7 6 3 8 3 4 -2 -11 -12 28 -36 46 -29 9
3 16 1 16 -6 0 -6 -5 -8 -12 -4 -7 5 10 -14 37 -42 28 -27 53 -48 58 -46 4 2
7 -4 7 -13 0 -17 20 -56 33 -66 5 -3 7 -8 6 -10 -2 -2 3 -25 10 -51 21 -74 11
-200 -21 -270 -14 -31 -24 -59 -22 -62 2 -3 1 -4 -2 -2 -11 8 -86 -83 -78 -95
4 -7 3 -9 -3 -6 -6 4 -45 -11 -87 -32 -75 -39 -76 -39 -183 -38 -97 2 -113 5
-163 31 -30 15 -63 35 -72 44 -10 8 -18 12 -18 8 0 -9 -52 51 -82 96 -14 20
-27 36 -29 35 -2 -1 -3 -1 -3 1 1 2 -7 35 -17 74 -11 40 -19 86 -19 104 0 53
21 135 47 187 13 26 21 53 17 59 -4 6 -3 8 3 5 13 -8 36 17 25 28 -4 5 -2 5 4
2 15 -9 48 29 38 44 -5 8 -3 10 5 5 7 -5 18 0 26 10 8 11 15 16 15 11 0 -4 22
4 49 19 28 14 71 29 98 34 59 10 162 3 215 -16z"/>
<path d="M6173 1803 c-13 -2 -23 -9 -23 -15 0 -5 -7 -8 -15 -4 -8 3 -15 1 -15
-4 0 -6 -8 -10 -18 -10 -18 0 -78 -39 -81 -52 0 -5 -3 -8 -6 -8 -15 1 -34 -31
-29 -47 4 -14 4 -15 -4 -4 -8 11 -13 9 -25 -10 -25 -38 -48 -99 -42 -109 4 -6
1 -10 -6 -10 -19 0 -6 -166 17 -217 10 -24 22 -43 26 -43 5 0 8 -6 8 -13 0
-19 90 -102 136 -125 68 -34 152 -47 220 -34 64 13 132 44 152 70 6 9 12 12
12 8 0 -5 7 -3 15 4 8 7 12 17 8 23 -3 6 -1 7 5 3 6 -4 23 12 40 36 100 149
92 313 -23 446 -27 31 -42 41 -56 37 -11 -4 -19 -2 -19 5 0 6 6 8 13 5 6 -4 2
3 -11 14 -54 48 -183 73 -279 54z m277 -632 c0 -5 -7 -12 -16 -15 -14 -5 -15
-4 -4 9 14 17 20 19 20 6z"/>
<path d="M5333 1846 c-62 -20 -106 -50 -166 -116 -116 -125 -146 -326 -72
-488 30 -65 110 -151 169 -181 97 -48 252 -49 349 -2 70 34 183 158 162 179
-3 3 -31 -22 -63 -55 -71 -77 -124 -102 -214 -103 -215 0 -330 165 -298 427
28 222 132 328 307 310 98 -10 178 -77 219 -183 9 -24 21 -44 25 -44 5 0 9 24
9 53 0 93 -13 217 -22 217 -5 0 -19 -12 -32 -27 l-23 -27 -54 24 c-67 29 -229
38 -296 16z"/>
<path d="M3460 1835 c0 -11 11 -15 38 -15 27 0 45 -7 58 -21 17 -19 19 -44 25
-303 6 -309 9 -329 71 -393 55 -57 118 -77 243 -76 62 0 123 5 140 12 78 32
132 88 157 163 6 18 13 155 17 304 5 248 8 274 25 293 12 13 31 21 53 21 23 0
33 5 33 15 0 13 -22 15 -140 15 -118 0 -140 -2 -140 -15 0 -10 10 -15 33 -15
73 0 77 -17 77 -294 0 -133 -5 -257 -11 -286 -21 -99 -112 -161 -233 -161 -72
0 -111 12 -149 49 -50 47 -57 98 -57 389 0 250 1 264 20 283 12 12 33 20 55
20 24 0 35 5 35 15 0 13 -26 15 -175 15 -149 0 -175 -2 -175 -15z"/>
<path d="M4352 1838 c3 -7 21 -14 40 -16 73 -6 73 -5 76 -362 4 -375 1 -387
-69 -392 -23 -2 -44 -9 -47 -15 -3 -10 36 -13 172 -13 150 0 176 2 176 15 0
11 -11 15 -39 15 -64 0 -71 18 -71 191 l0 146 108 -1 c96 -1 112 2 157 25 123
62 153 222 62 325 -65 75 -145 94 -395 94 -134 0 -173 -3 -170 -12z m407 -71
c84 -51 95 -213 19 -284 -36 -34 -77 -45 -135 -38 l-53 6 0 169 0 169 33 3
c51 6 99 -3 136 -25z"/>
<path d="M6660 1835 c0 -10 10 -15 30 -15 19 0 40 -9 55 -25 l25 -24 0 -329
c0 -372 0 -369 -72 -374 -23 -1 -38 -7 -38 -15 0 -10 32 -13 140 -13 115 0
140 3 140 14 0 10 -14 16 -42 18 -68 5 -69 11 -66 341 l3 285 150 -329 c101
-221 155 -328 164 -326 8 1 82 150 165 332 l151 330 3 -250 c3 -250 -1 -338
-18 -364 -4 -8 -27 -17 -51 -20 -23 -3 -44 -12 -47 -18 -3 -10 36 -13 172 -13
97 0 176 4 176 9 0 11 -25 21 -55 21 -53 0 -55 16 -55 377 0 320 1 334 20 353
12 12 33 20 55 20 25 0 35 4 35 15 0 13 -17 15 -117 13 l-117 -3 -140 -307
c-77 -169 -144 -304 -148 -300 -4 4 -70 143 -147 307 l-139 300 -116 3 c-99 2
-116 0 -116 -13z"/>
<path d="M4475 920 c10 -11 25 -20 33 -20 12 0 12 4 -3 20 -10 11 -25 20 -33
20 -12 0 -12 -4 3 -20z"/>
<path d="M2753 923 c-21 -8 -15 -22 7 -16 22 6 26 -7 8 -25 -8 -8 -8 -12 -1
-12 6 0 16 7 23 15 10 12 10 18 0 30 -13 16 -17 17 -37 8z"/>
<path d="M3425 890 c-15 -16 -15 -20 -3 -20 8 0 23 9 33 20 15 16 15 20 3 20
-8 0 -23 -9 -33 -20z"/>
<path d="M4421 886 c-9 -11 -4 -13 29 -13 33 0 38 2 29 13 -6 8 -19 14 -29 14
-10 0 -23 -6 -29 -14z"/>
<path d="M5157 893 c-14 -13 -6 -19 28 -20 30 -1 34 1 24 13 -12 15 -41 19
-52 7z"/>
<path d="M7441 886 c-9 -11 -4 -13 29 -13 33 0 38 2 29 13 -6 8 -19 14 -29 14
-10 0 -23 -6 -29 -14z"/>
<path d="M6585 861 c5 -16 2 -18 -15 -14 -19 5 -20 1 -20 -68 0 -82 -8 -103
-36 -97 -16 3 -19 14 -22 86 -3 75 -5 82 -23 82 -20 0 -21 -5 -18 -86 3 -71 7
-88 24 -101 23 -17 84 -11 97 9 4 7 8 45 8 84 0 51 4 75 15 84 20 16 19 40 -1
40 -11 0 -13 -6 -9 -19z"/>
<path d="M6710 870 c0 -5 5 -10 12 -10 6 0 8 -3 4 -7 -4 -4 -26 -6 -51 -4 -55
3 -65 -13 -65 -103 0 -45 5 -69 16 -80 19 -19 64 -21 87 -3 22 16 33 96 18
138 -8 22 -8 36 -1 43 15 15 12 36 -5 36 -8 0 -15 -4 -15 -10z m-21 -54 c7 -9
11 -38 9 -73 -2 -47 -6 -58 -22 -61 -25 -5 -36 14 -36 66 0 67 23 99 49 68z"/>
<path d="M2480 831 c-16 -32 -13 -147 6 -165 18 -19 55 -21 72 -4 9 9 12 9 12
0 0 -7 7 -12 15 -12 12 0 15 13 15 55 0 54 0 55 -30 55 -20 0 -30 -5 -30 -15
0 -8 5 -15 11 -15 6 0 9 -10 7 -22 -3 -26 -36 -37 -49 -16 -14 21 -10 102 5
123 15 21 46 14 46 -10 0 -8 9 -15 20 -15 24 0 25 8 4 38 -20 30 -88 31 -104
3z"/>
<path d="M2640 750 c0 -82 3 -100 15 -100 12 0 15 18 15 100 0 82 -3 100 -15
100 -12 0 -15 -18 -15 -100z"/>
<path d="M2747 843 c-3 -5 -12 -42 -21 -83 -9 -41 -19 -83 -22 -92 -4 -13 0
-18 15 -18 13 0 21 8 23 23 2 16 11 23 31 25 23 3 27 0 27 -22 0 -20 5 -26 21
-26 17 0 20 5 16 23 -42 183 -40 177 -63 177 -13 0 -25 -3 -27 -7z m36 -75 c5
-33 3 -38 -13 -38 -11 0 -18 6 -16 13 3 6 7 25 11 41 7 35 10 32 18 -16z"/>
<path d="M2880 750 c0 -82 3 -100 15 -100 12 0 15 18 15 100 0 82 -3 100 -15
100 -12 0 -15 -18 -15 -100z"/>
<path d="M3050 750 c0 -80 3 -100 14 -100 10 0 16 14 18 43 3 38 5 42 33 45
40 5 55 19 55 53 0 40 -24 59 -76 59 l-44 0 0 -100z m78 43 c-2 -20 -9 -28
-23 -28 -14 0 -21 8 -23 28 -3 23 0 27 23 27 23 0 26 -4 23 -27z"/>
<path d="M3200 750 c0 -93 1 -100 20 -100 17 0 20 7 20 45 0 41 2 45 25 45 23
0 25 -4 25 -45 0 -38 3 -45 20 -45 19 0 20 7 20 100 0 93 -1 100 -20 100 -17
0 -20 -7 -20 -40 0 -36 -2 -40 -25 -40 -22 0 -25 4 -25 40 0 33 -3 40 -20 40
-19 0 -20 -7 -20 -100z"/>
<path d="M3386 773 c-10 -43 -20 -88 -23 -100 -4 -18 -1 -23 16 -23 16 0 21 6
21 26 0 22 4 25 28 22 19 -2 28 -9 30 -25 2 -15 10 -23 23 -23 15 0 18 5 14
23 -3 12 -14 56 -23 97 -16 67 -20 75 -43 78 -24 3 -26 -1 -43 -75z m54 -7 c7
-32 6 -36 -12 -36 -14 0 -18 5 -14 16 3 9 6 27 6 41 0 34 10 24 20 -21z"/>
<path d="M3540 750 c0 -82 3 -100 15 -100 11 0 15 12 15 45 0 43 1 45 29 45
36 0 61 23 61 55 0 36 -26 55 -76 55 l-44 0 0 -100z m80 46 c0 -22 -16 -36
-41 -36 -5 0 -9 14 -9 30 0 25 4 30 25 30 20 0 25 -5 25 -24z"/>
<path d="M3770 835 c0 -8 9 -15 20 -15 18 0 20 -7 20 -85 0 -78 2 -85 20 -85
18 0 20 7 20 85 0 78 2 85 20 85 11 0 20 7 20 15 0 12 -13 15 -60 15 -47 0
-60 -3 -60 -15z"/>
<path d="M3920 750 c0 -82 3 -100 15 -100 11 0 15 11 15 39 0 44 10 55 40 46
16 -5 20 -15 20 -46 0 -32 3 -39 20 -39 18 0 20 4 14 43 -4 23 -11 47 -16 54
-5 6 -5 12 0 15 5 1 12 13 16 25 11 35 -24 63 -79 63 l-45 0 0 -100z m88 43
c-2 -22 -8 -28 -28 -28 -20 0 -26 6 -28 28 -3 24 0 27 28 27 28 0 31 -3 28
-27z"/>
<path d="M4080 766 c0 -97 11 -116 65 -116 54 0 65 19 65 116 0 77 -2 84 -20
84 -18 0 -20 -7 -20 -85 0 -84 0 -85 -25 -85 -25 0 -25 1 -25 85 0 78 -2 85
-20 85 -18 0 -20 -7 -20 -84z"/>
<path d="M4230 846 c0 -2 11 -28 25 -58 14 -30 25 -71 25 -95 0 -32 4 -43 15
-43 11 0 15 11 15 40 0 25 11 63 30 100 29 57 29 60 10 60 -13 0 -25 -12 -36
-37 l-17 -38 -16 37 c-10 23 -23 38 -33 38 -10 0 -18 -2 -18 -4z"/>
<path d="M4390 750 l0 -100 60 0 c47 0 60 3 60 15 0 11 -11 15 -40 15 -38 0
-40 2 -40 30 0 28 2 30 40 30 29 0 40 4 40 15 0 11 -11 15 -40 15 -36 0 -40 3
-40 25 0 23 4 25 40 25 29 0 40 4 40 15 0 12 -13 15 -60 15 l-60 0 0 -100z"/>
<path d="M4560 750 c0 -82 3 -100 15 -100 12 0 15 15 15 73 l1 72 27 -70 c21
-54 32 -71 50 -73 21 -3 22 -1 22 97 0 96 -1 101 -21 101 -21 0 -21 -4 -17
-70 3 -38 4 -70 3 -70 -2 0 -16 32 -31 70 -20 51 -32 70 -46 70 -16 0 -18 -10
-18 -100z"/>
<path d="M4810 835 c0 -8 9 -15 20 -15 18 0 20 -7 20 -85 0 -78 2 -85 20 -85
18 0 20 7 20 85 0 78 2 85 20 85 11 0 20 7 20 15 0 12 -13 15 -60 15 -47 0
-60 -3 -60 -15z"/>
<path d="M4960 750 c0 -82 3 -100 15 -100 11 0 15 12 15 45 0 43 1 45 30 45
29 0 30 -2 30 -45 0 -38 3 -45 20 -45 19 0 20 7 20 100 0 93 -1 100 -20 100
-17 0 -20 -7 -20 -40 0 -38 -2 -40 -30 -40 -28 0 -30 2 -30 40 0 29 -4 40 -15
40 -12 0 -15 -18 -15 -100z"/>
<path d="M5136 834 c-11 -11 -16 -35 -16 -83 0 -78 16 -101 68 -101 43 0 62
31 62 100 0 71 -19 100 -65 100 -18 0 -41 -7 -49 -16z m63 -18 c7 -9 11 -38 9
-73 -3 -51 -6 -58 -25 -61 -22 -3 -23 0 -23 66 0 82 11 102 39 68z"/>
<path d="M5290 750 c0 -94 1 -100 21 -100 19 0 20 4 14 73 l-6 72 31 -72 c24
-54 37 -73 51 -73 17 0 19 8 19 100 0 94 -1 100 -21 100 -19 0 -20 -4 -13 -70
3 -38 4 -70 2 -70 -3 0 -17 32 -32 70 -21 53 -32 70 -47 70 -17 0 -19 -8 -19
-100z"/>
<path d="M5476 834 c-24 -24 -22 -145 2 -167 22 -20 53 -22 70 -5 9 9 12 9 12
0 0 -7 7 -12 15 -12 12 0 15 13 15 55 0 54 0 55 -30 55 -20 0 -30 -5 -30 -15
0 -8 7 -15 16 -15 11 0 14 -5 10 -16 -3 -9 -6 -20 -6 -25 0 -5 -11 -9 -25 -9
-24 0 -25 2 -25 69 0 56 3 70 17 76 12 4 24 -1 35 -14 19 -24 38 -27 38 -7 0
25 -30 46 -65 46 -18 0 -41 -7 -49 -16z"/>
<path d="M5730 812 c0 -21 -6 -44 -12 -51 -10 -11 -10 -14 0 -18 7 -3 12 -23
12 -49 l0 -44 43 0 c62 0 77 20 77 103 0 80 -13 97 -76 97 l-44 0 0 -38z m84
-14 c16 -61 -1 -118 -34 -118 -16 0 -20 7 -20 30 0 20 5 30 15 30 8 0 15 5 15
10 0 6 -7 10 -15 10 -10 0 -15 10 -15 30 0 25 4 30 24 30 16 0 26 -7 30 -22z"/>
<path d="M5927 843 c-3 -5 -12 -42 -21 -83 -9 -41 -19 -83 -22 -92 -4 -13 0
-18 15 -18 13 0 21 8 23 23 2 16 11 23 31 25 23 3 27 0 27 -22 0 -20 5 -26 21
-26 17 0 20 4 16 22 -4 12 -14 57 -23 100 -15 70 -19 78 -40 78 -12 0 -25 -3
-27 -7z m36 -75 c5 -33 3 -38 -13 -38 -11 0 -18 6 -16 13 3 6 7 25 11 41 7 35
10 32 18 -16z"/>
<path d="M6140 750 c0 -80 3 -100 14 -100 10 0 16 14 18 43 3 39 5 42 33 45
34 4 55 26 55 58 0 35 -26 54 -76 54 l-44 0 0 -100z m78 43 c-2 -20 -9 -28
-23 -28 -14 0 -21 8 -23 28 -3 23 0 27 23 27 23 0 26 -4 23 -27z"/>
<path d="M6290 750 c0 -93 1 -100 20 -100 17 0 20 7 20 45 0 43 1 45 30 45 29
0 30 -2 30 -45 0 -33 4 -45 15 -45 12 0 15 18 15 100 0 82 -3 100 -15 100 -11
0 -15 -11 -15 -40 0 -38 -2 -40 -30 -40 -28 0 -30 2 -30 40 0 33 -3 40 -20 40
-19 0 -20 -7 -20 -100z"/>
<path d="M6770 750 c0 -82 3 -100 15 -100 12 0 15 15 15 73 l1 72 27 -70 c21
-54 32 -71 50 -73 21 -3 22 -1 22 97 0 96 -1 101 -21 101 -21 0 -21 -4 -17
-70 3 -38 4 -70 3 -70 -1 0 -15 32 -30 70 -21 51 -33 70 -47 70 -16 0 -18 -10
-18 -100z"/>
<path d="M6952 838 c-19 -19 -16 -153 4 -172 18 -19 55 -21 72 -4 9 9 12 9 12
0 0 -7 7 -12 15 -12 12 0 15 13 15 55 0 54 0 55 -30 55 -20 0 -30 -5 -30 -15
0 -8 5 -15 11 -15 6 0 9 -10 7 -22 -3 -26 -36 -37 -49 -16 -14 21 -10 102 5
123 15 21 46 14 46 -10 0 -8 9 -15 20 -15 24 0 25 8 4 38 -17 25 -81 31 -102
10z"/>
<path d="M7190 835 c0 -8 9 -15 20 -15 18 0 20 -7 20 -85 0 -78 2 -85 20 -85
18 0 20 7 20 85 0 78 2 85 20 85 11 0 20 7 20 15 0 12 -13 15 -60 15 -47 0
-60 -3 -60 -15z"/>
<path d="M7340 750 c0 -82 3 -100 15 -100 12 0 15 18 15 100 0 82 -3 100 -15
100 -12 0 -15 -18 -15 -100z"/>
<path d="M7420 750 l0 -100 60 0 c47 0 60 3 60 15 0 11 -12 15 -45 15 -43 0
-45 1 -45 30 0 28 2 30 40 30 29 0 40 4 40 15 0 11 -11 15 -40 15 -36 0 -40 3
-40 25 0 23 4 25 45 25 33 0 45 4 45 15 0 12 -13 15 -60 15 l-60 0 0 -100z"/>
<path d="M7580 750 c0 -82 3 -100 15 -100 12 0 15 15 15 73 l1 72 27 -70 c21
-54 32 -71 50 -73 21 -3 22 -1 22 97 0 96 -1 101 -21 101 -20 0 -21 -4 -17
-70 2 -38 3 -70 2 -70 0 0 -14 32 -29 70 -21 51 -33 70 -47 70 -16 0 -18 -10
-18 -100z"/>
<path d="M7450 620 c0 -5 9 -10 20 -10 11 0 20 5 20 10 0 6 -9 10 -20 10 -11
0 -20 -4 -20 -10z"/>
<path d="M7273 553 c-14 -5 -19 -102 -5 -104 36 -6 60 -7 80 -3 19 4 22 11 22
54 0 44 -3 50 -22 54 -29 5 -60 5 -75 -1z"/>
<path d="M7427 544 c-4 -4 -7 -25 -7 -46 0 -48 17 -56 101 -49 6 1 9 20 7 49
l-3 47 -45 3 c-25 2 -49 0 -53 -4z m33 -8 c0 -2 -7 -6 -15 -10 -8 -3 -15 -1
-15 4 0 6 7 10 15 10 8 0 15 -2 15 -4z"/>
</g>
</svg>
