<?xml version="1.0" standalone="no"?>
<!DOCTYPE svg PUBLIC "-//W3C//DTD SVG 20010904//EN"
 "http://www.w3.org/TR/2001/REC-SVG-20010904/DTD/svg10.dtd">
<svg version="1.0" xmlns="http://www.w3.org/2000/svg"
 width="600.000000pt" height="843.000000pt" viewBox="0 0 600.000000 843.000000"
 preserveAspectRatio="xMidYMid meet">

<g transform="translate(0.000000,843.000000) scale(0.100000,-0.100000)"
fill="#000000" stroke="none">
<path d="M2209 8130 c-15 -25 -31 -40 -45 -40 -11 0 -48 -14 -82 -31 -34 -17
-66 -28 -72 -24 -5 3 -10 2 -10 -4 0 -6 -9 -19 -20 -29 -18 -17 -19 -25 -12
-60 9 -39 8 -42 -29 -78 -29 -29 -48 -39 -74 -40 -19 0 -35 3 -35 8 0 5 -25
-11 -56 -36 -31 -26 -62 -46 -69 -46 -25 0 -67 42 -62 62 5 17 2 19 -18 14
-77 -20 -86 -29 -105 -118 -7 -32 -18 -58 -25 -58 -13 0 -64 47 -125 116 -25
28 -51 49 -58 46 -16 -5 -42 -55 -42 -80 0 -11 -7 -26 -16 -33 -14 -11 -20
-10 -40 14 -13 16 -24 36 -24 46 0 21 -35 55 -48 47 -5 -3 -15 -19 -22 -35 -7
-17 -28 -39 -47 -51 -26 -15 -33 -25 -28 -40 5 -14 -1 -23 -25 -35 -17 -9 -28
-20 -25 -25 4 -6 0 -13 -8 -16 -25 -9 -77 25 -94 61 -9 19 -26 38 -37 41 -11
4 -32 15 -46 25 -14 10 -41 20 -60 22 -21 3 -39 12 -48 26 -8 11 -20 21 -26
21 -12 0 -51 -60 -48 -73 2 -5 -16 -30 -38 -57 -22 -26 -40 -55 -40 -64 0 -11
-9 -16 -31 -16 -29 0 -31 -2 -24 -27 8 -34 37 -71 78 -99 47 -32 107 -102 107
-125 0 -13 10 -24 30 -31 36 -12 60 -60 60 -119 0 -37 2 -39 30 -39 34 0 50
23 50 70 0 45 24 33 28 -14 3 -31 6 -36 20 -31 38 16 46 11 53 -34 5 -39 2
-47 -28 -83 -38 -46 -39 -50 -16 -41 13 5 15 3 8 -13 -4 -10 -10 -31 -13 -46
-2 -16 -13 -30 -24 -34 -19 -6 -19 -7 3 -18 13 -6 25 -22 27 -34 2 -12 8 -22
13 -22 5 0 9 -7 9 -15 0 -8 11 -25 26 -37 14 -13 33 -41 43 -63 10 -22 24 -45
32 -52 21 -17 96 -36 144 -36 27 0 44 -6 53 -19 7 -10 22 -18 32 -18 10 0 32
-11 48 -25 34 -28 57 -33 48 -10 -3 9 1 18 9 21 8 4 15 16 15 29 0 29 13 39
82 63 32 10 66 26 76 35 30 27 112 -5 169 -68 17 -19 39 -35 47 -35 8 0 20 -9
26 -19 5 -11 20 -23 32 -27 37 -11 49 -24 39 -43 -19 -34 -54 -63 -71 -58 -20
5 -65 -35 -53 -46 3 -4 28 -7 55 -7 38 0 57 -6 84 -27 33 -27 45 -53 23 -53
-6 0 -9 -10 -7 -22 3 -21 8 -23 47 -20 51 4 91 -13 91 -40 0 -10 6 -21 13 -24
18 -7 9 -64 -12 -72 -63 -26 -105 -72 -66 -72 25 0 17 -27 -14 -49 -16 -12
-34 -21 -40 -21 -6 0 -17 -15 -25 -34 -20 -49 -64 -57 -117 -21 -24 15 -47 24
-58 20 -10 -3 -30 -1 -44 6 -20 9 -32 8 -61 -6 -28 -13 -40 -15 -49 -6 -30 30
-38 -10 -8 -43 23 -26 36 -66 22 -66 -6 0 -11 -7 -11 -15 0 -9 -11 -20 -25
-25 -14 -5 -38 -19 -54 -31 l-29 -22 25 -23 c14 -13 37 -24 50 -24 27 0 98
-34 110 -52 4 -7 24 -22 43 -32 19 -10 45 -28 58 -40 13 -11 29 -21 37 -21 7
0 33 -18 57 -40 60 -55 99 -75 147 -75 28 0 44 -5 47 -15 4 -8 14 -15 23 -15
24 0 86 -23 105 -39 21 -18 20 -27 -4 -51 -12 -12 -20 -33 -20 -53 0 -21 8
-41 20 -52 11 -10 20 -25 20 -32 0 -19 40 -52 62 -53 10 0 15 -5 12 -13 -3 -8
2 -20 11 -27 13 -11 19 -10 35 5 16 15 22 15 35 5 8 -7 15 -18 15 -24 0 -7 8
-21 18 -32 33 -37 52 -74 52 -103 0 -34 72 -147 99 -156 10 -3 46 -38 79 -79
84 -102 172 -172 172 -136 0 18 30 11 32 -7 0 -10 2 -23 2 -30 1 -6 12 -27 26
-45 13 -18 25 -39 26 -46 4 -25 28 -44 51 -39 23 4 23 3 23 -85 0 -84 2 -90
28 -116 15 -15 32 -45 37 -67 13 -54 40 -58 78 -14 23 28 29 31 37 19 6 -8 9
-24 8 -35 -4 -25 52 -85 78 -85 28 0 64 -28 64 -50 0 -11 10 -25 23 -31 12 -6
34 -23 49 -36 22 -21 33 -24 62 -19 32 6 36 5 36 -14 0 -11 -7 -32 -16 -45
-17 -26 -100 -69 -115 -59 -5 3 -14 -7 -20 -23 -9 -24 -7 -30 15 -46 14 -10
26 -27 26 -37 0 -11 9 -24 20 -30 11 -6 27 -24 36 -41 10 -20 21 -29 30 -25
20 8 54 -15 54 -36 0 -12 7 -17 22 -15 15 1 23 -4 26 -18 2 -11 15 -32 29 -46
l25 -27 -26 -46 c-14 -26 -25 -52 -23 -59 1 -7 -12 -13 -31 -15 -48 -5 -53
-30 -12 -64 l34 -28 -21 -22 c-16 -19 -19 -29 -12 -53 18 -60 -16 -185 -50
-185 -22 0 -42 -40 -34 -69 3 -11 0 -35 -6 -52 -16 -45 -4 -109 21 -109 23 0
37 -36 33 -86 -2 -28 4 -47 20 -69 35 -46 64 -109 71 -152 5 -32 -2 -58 -39
-146 -25 -59 -41 -109 -37 -112 4 -3 6 -14 3 -25 -3 -11 4 -38 16 -60 15 -29
23 -66 26 -124 5 -100 -12 -159 -56 -195 l-30 -23 -24 22 c-38 36 -86 21 -149
-47 -63 -68 -97 -87 -142 -78 -31 5 -36 3 -51 -24 -16 -28 -22 -30 -86 -33
-38 -2 -71 0 -74 5 -11 18 -22 -6 -12 -25 8 -15 8 -31 0 -59 -9 -30 -9 -43 1
-58 15 -24 6 -36 -19 -26 -10 4 -28 7 -41 6 -13 -2 -31 4 -41 13 -10 9 -41 20
-71 26 -65 12 -60 12 -60 -2 -1 -27 -39 -59 -66 -56 -37 4 -56 -26 -29 -46 17
-12 20 -25 18 -85 -1 -39 3 -71 8 -71 5 0 9 -7 9 -15 0 -9 10 -19 23 -24 13
-5 37 -25 54 -44 20 -23 34 -32 41 -25 6 6 15 2 26 -13 21 -30 21 -63 1 -55
-19 7 -19 -12 1 -59 8 -20 13 -39 11 -41 -10 -10 -91 16 -110 35 -20 20 -20
20 -37 -2 -17 -20 -17 -20 -53 36 -20 31 -42 57 -47 57 -6 0 -25 -7 -42 -16
-17 -9 -56 -17 -86 -19 -54 -2 -81 -18 -95 -58 -3 -9 -9 -8 -23 4 -10 9 -37
20 -59 24 -22 4 -45 11 -51 16 -7 6 -16 4 -25 -7 -10 -13 -10 -21 0 -47 25
-63 25 -65 -16 -86 -21 -11 -51 -36 -67 -56 l-28 -37 -70 7 -70 7 -34 -37
c-19 -21 -31 -41 -28 -44 4 -3 9 0 11 7 8 20 25 14 18 -7 -4 -13 3 -28 19 -46
14 -15 28 -40 31 -57 l7 -30 24 26 c33 35 58 33 91 -9 21 -27 35 -35 60 -35
41 0 93 -59 93 -105 -1 -28 -1 -29 -15 -11 -14 18 -16 17 -57 -19 -24 -21 -46
-43 -49 -49 -12 -21 -28 -143 -34 -263 l-6 -123 182 0 c148 0 186 3 199 15 17
16 241 107 323 132 36 10 47 18 43 29 -3 8 0 24 7 34 9 16 9 24 -3 42 -7 13
-29 48 -47 78 -19 30 -61 83 -95 117 -34 34 -60 65 -57 67 9 9 77 -39 106 -74
39 -49 131 -132 173 -158 45 -27 96 -26 116 2 19 27 18 82 -1 90 -8 3 -15 11
-15 19 0 7 -43 53 -95 102 -52 50 -95 95 -95 101 0 6 -7 17 -15 24 -8 7 -15
17 -15 23 0 6 40 -27 89 -74 162 -152 201 -180 201 -145 0 8 8 16 18 18 11 2
-7 17 -52 43 -51 30 -79 54 -107 95 -40 58 -45 70 -29 70 6 0 24 -23 41 -51
18 -28 49 -62 71 -75 40 -26 75 -28 70 -5 -1 7 3 20 9 28 10 11 14 11 20 1 6
-10 12 -8 23 7 9 11 16 25 16 31 0 14 -44 35 -122 59 -63 19 -109 55 -53 41
17 -4 63 -9 103 -11 l72 -3 0 28 c0 28 -39 88 -40 61 0 -8 -7 -11 -20 -8 -11
3 -22 1 -25 -4 -8 -12 -35 1 -35 17 0 8 6 11 16 7 10 -4 20 0 26 10 4 9 15 14
23 11 20 -8 46 46 34 69 -13 22 14 35 36 17 8 -6 19 -9 25 -5 16 10 50 -24 50
-49 0 -12 5 -28 11 -36 8 -12 9 -8 5 15 -2 17 -1 37 4 45 5 9 5 19 -2 27 -15
18 -2 29 16 14 10 -8 14 -29 13 -60 -2 -44 0 -49 21 -50 12 -1 30 -2 40 -3 24
-1 44 -19 38 -34 -9 -23 24 -23 47 0 13 12 41 26 63 29 22 4 49 16 59 27 10
11 61 41 112 66 71 35 101 45 123 41 27 -6 30 -3 45 42 9 27 24 56 33 64 23
21 89 32 105 19 10 -9 17 -4 30 17 9 16 30 34 46 41 17 7 33 20 36 30 9 28 54
53 97 53 32 0 39 4 44 23 10 40 39 57 83 50 53 -8 65 9 68 97 3 76 9 92 24 64
16 -28 45 -20 63 18 9 19 21 37 26 40 13 8 -22 64 -37 58 -23 -9 -28 28 -6 46
11 9 23 25 27 35 8 24 20 13 21 -21 0 -14 5 -28 10 -30 6 -1 10 11 10 29 0 25
-6 35 -25 45 -30 15 -48 65 -22 61 12 -2 16 3 14 17 -2 11 -3 34 -3 50 2 69 0
80 -14 88 -19 10 -20 37 -1 37 8 0 25 -13 39 -29 16 -20 28 -26 35 -19 12 12
-12 63 -34 72 -9 3 -14 13 -11 21 4 9 1 12 -8 8 -12 -4 -14 2 -8 28 7 39 128
167 136 146 3 -7 6 -4 6 5 1 10 -19 45 -44 79 -40 55 -44 65 -41 107 2 26 2
41 -1 35 -2 -7 -9 -13 -14 -13 -14 0 -11 38 3 43 9 3 6 10 -9 21 -27 20 -27
72 0 70 9 -1 17 2 17 7 0 5 -4 9 -8 9 -5 0 -16 16 -25 35 -19 40 -21 49 -9 41
4 -3 7 27 5 65 -2 53 0 70 10 66 6 -2 15 -19 18 -38 l6 -34 2 37 c0 20 -3 39
-8 42 -5 3 -12 26 -15 50 -4 25 -16 56 -27 69 -24 31 -24 41 -1 32 14 -5 15
-4 4 6 -6 7 -12 23 -12 36 0 12 -9 37 -20 55 -11 18 -20 43 -20 56 0 13 -5 33
-12 45 -6 12 -10 43 -9 69 1 37 -3 56 -22 81 -28 38 -67 139 -67 173 0 15 -6
24 -15 24 -8 0 -15 5 -15 10 0 6 3 10 8 10 4 0 12 11 18 25 9 19 9 27 -2 36
-8 6 -14 16 -14 21 0 5 -10 22 -21 36 -21 25 -22 26 -16 5 3 -16 1 -23 -9 -23
-8 0 -14 5 -14 11 0 6 -11 24 -25 41 -14 16 -25 25 -25 19 0 -6 -7 -11 -15
-11 -21 0 -19 28 3 33 15 4 15 5 0 6 -19 1 -115 129 -130 175 -11 30 -86 111
-100 108 -14 -3 -9 17 9 38 10 11 23 20 30 20 24 0 13 15 -12 16 -18 2 -25 -3
-23 -15 4 -21 -35 -27 -51 -8 -12 15 -5 47 10 47 5 0 9 5 9 10 0 6 -15 10 -34
10 -19 0 -38 5 -41 10 -3 6 -2 10 4 10 7 0 7 7 0 23 -11 25 -69 34 -69 11 0
-20 -16 -25 -43 -15 -27 10 -45 43 -27 49 13 5 -48 72 -65 72 -11 0 -40 30
-46 49 -8 22 -214 179 -223 170 -17 -15 -29 -10 -16 6 11 13 9 21 -8 45 -12
16 -22 37 -22 47 -1 11 -32 40 -77 73 -114 82 -151 118 -201 195 -95 148 -107
183 -72 220 l23 24 -27 35 c-14 19 -26 39 -26 44 0 11 -18 11 -37 -1 -6 -4
-15 -2 -19 5 -4 6 -2 14 4 16 7 2 -10 22 -38 44 -27 22 -55 38 -61 36 -13 -4
-109 93 -109 110 0 7 -6 12 -12 12 -18 0 -54 59 -72 116 -8 27 -15 43 -15 36
-1 -7 -5 -11 -10 -8 -5 3 -7 15 -4 27 4 15 0 22 -16 26 -11 3 -21 10 -21 15 0
5 6 6 13 2 6 -3 0 4 -14 17 -15 13 -29 35 -32 48 -6 24 17 82 31 80 25 -4 32
4 32 37 0 24 6 41 18 50 12 9 18 29 19 76 1 35 4 79 7 98 3 19 5 42 5 51 1 9
13 28 28 43 22 22 24 29 13 36 -12 8 -12 10 2 15 9 4 20 21 24 38 4 18 14 42
23 54 13 18 22 21 54 16 36 -5 40 -3 106 66 48 49 77 71 93 71 36 0 67 39 73
93 5 39 4 46 -10 41 -8 -3 -15 -2 -15 4 0 5 8 13 18 17 16 6 16 7 -2 21 -21
15 -21 16 12 33 15 8 21 18 18 27 -3 8 -2 13 3 9 15 -9 42 7 37 21 -5 14 18
19 54 14 11 -1 9 5 -7 22 -13 15 -20 33 -18 51 2 18 -1 27 -11 27 -8 0 -14 5
-14 11 0 6 6 9 14 6 9 -4 16 3 19 18 5 31 -1 37 -24 24 -15 -7 -21 -6 -25 6
-9 21 -2 26 36 27 31 1 58 -21 40 -32 -19 -12 -14 -56 9 -79 31 -31 36 -21 10
23 -11 20 -16 36 -10 36 5 0 15 -8 20 -17 7 -12 10 -13 11 -4 0 7 6 11 15 7
22 -8 18 3 -7 24 -13 10 -20 22 -16 26 5 4 16 0 26 -9 10 -10 34 -17 52 -17
32 0 33 1 14 15 -12 9 -14 14 -6 15 7 0 11 3 9 8 -3 4 11 8 32 9 35 1 36 1 14
-14 -30 -20 -29 -29 4 -38 21 -5 31 -2 44 13 9 12 31 22 50 24 31 3 33 6 36
42 1 21 4 41 7 44 3 3 1 11 -5 18 -16 19 -1 54 23 54 17 0 18 2 8 15 -15 18 1
21 31 5 15 -8 19 -7 19 5 0 19 16 20 24 0 9 -24 21 -18 42 20 11 20 24 33 32
30 7 -2 21 4 32 15 22 22 26 40 9 40 -5 0 -7 4 -4 10 4 6 13 5 25 -2 14 -9 22
-9 34 1 19 16 39 4 33 -20 -6 -21 3 -25 21 -7 8 8 -1 23 -39 60 -53 51 -69 56
-115 34 -16 -8 -50 -17 -76 -21 -39 -5 -48 -3 -48 9 0 24 -20 29 -41 10 -22
-20 -21 -20 -43 24 -14 27 -21 31 -41 26 -19 -5 -33 1 -60 25 -20 17 -42 31
-50 31 -21 0 -27 17 -14 41 13 26 -5 43 -32 29 -12 -7 -22 -4 -34 10 -10 11
-28 20 -40 20 -11 0 -26 5 -33 12 -9 9 -16 7 -31 -6 -23 -21 -35 -7 -22 27 6
16 6 38 0 61 -6 20 -7 41 -4 46 11 17 -7 60 -25 60 -31 0 -43 26 -37 78 3 26
10 60 17 76 10 27 12 28 29 12 9 -9 20 -16 23 -16 3 0 13 21 23 48 10 26 24
54 31 63 19 21 18 29 -4 29 -9 0 -23 9 -30 21 -8 13 -19 18 -29 15 -9 -4 -23
0 -32 8 -21 18 -61 30 -61 18 0 -11 -68 -32 -104 -32 -20 0 -29 7 -37 27 -6
15 -16 31 -22 35 -20 13 -99 9 -111 -6 -6 -7 -25 -16 -42 -19 -26 -5 -36 0
-67 32 -28 29 -48 41 -84 47 -41 8 -49 13 -51 34 -4 28 -56 91 -84 102 -10 4
-25 21 -31 38 l-13 30 -25 -40z m641 -3260 c14 -11 20 -20 13 -20 -6 0 -19 -3
-27 -6 -12 -5 -15 -2 -10 10 4 11 0 16 -14 16 -12 0 -24 5 -27 10 -11 18 39
10 65 -10z m611 -637 c41 -24 36 -36 -6 -16 -19 9 -35 20 -35 25 0 12 9 10 41
-9z"/>
<path d="M3640 6980 c-12 -8 -11 -10 5 -9 11 1 31 5 45 9 24 8 24 8 -5 9 -16
0 -37 -4 -45 -9z"/>
<path d="M3584 6954 c-18 -14 -18 -15 4 -4 12 6 22 13 22 15 0 8 -5 6 -26 -11z"/>
<path d="M3419 6915 c-1 -5 -3 -14 -4 -20 -1 -5 -9 -27 -18 -49 -23 -53 -21
-61 11 -37 55 41 87 71 71 69 -9 -2 -26 8 -37 22 -12 14 -22 21 -23 15z"/>
<path d="M3462 6810 c-7 -11 -8 -20 -2 -20 5 0 14 9 20 20 6 11 7 20 3 20 -5
0 -14 -9 -21 -20z"/>
<path d="M3492 6795 c-7 -14 -12 -31 -12 -38 1 -7 7 3 16 22 17 39 13 54 -4
16z"/>
<path d="M3453 6768 c-5 -7 -13 -21 -17 -32 -3 -10 -12 -16 -19 -13 -6 2 -19
-2 -27 -11 -12 -14 -11 -15 11 -9 13 4 29 7 36 7 6 0 16 14 22 32 12 34 9 46
-6 26z"/>
<path d="M3580 6750 c0 -19 3 -21 12 -12 9 9 9 15 0 24 -9 9 -12 7 -12 -12z"/>
<path d="M3444 6692 c-10 -7 -27 -42 -20 -42 2 0 11 11 20 25 17 26 17 29 0
17z"/>
<path d="M3130 6665 c-8 -10 -2 -20 26 -44 21 -16 42 -27 47 -24 5 3 3 9 -4
14 -11 8 -10 11 4 20 18 11 18 11 0 23 -29 20 -61 25 -73 11z"/>
<path d="M5410 4380 c0 -5 5 -10 11 -10 5 0 7 5 4 10 -3 6 -8 10 -11 10 -2 0
-4 -4 -4 -10z"/>
<path d="M5340 4240 c0 -5 5 -10 11 -10 5 0 7 5 4 10 -3 6 -8 10 -11 10 -2 0
-4 -4 -4 -10z"/>
<path d="M4430 2425 c0 -8 2 -15 4 -15 2 0 6 7 10 15 3 8 1 15 -4 15 -6 0 -10
-7 -10 -15z"/>
<path d="M4472 2010 c-9 -15 -8 -17 9 -13 15 4 19 0 20 -23 0 -28 1 -28 9 -6
7 17 5 27 -9 41 -17 17 -19 17 -29 1z"/>
<path d="M4460 1955 c7 -9 15 -13 17 -11 7 7 -7 26 -19 26 -6 0 -6 -6 2 -15z"/>
<path d="M4415 1740 c3 -5 14 -10 23 -10 15 0 15 2 2 10 -20 13 -33 13 -25 0z"/>
<path d="M3047 859 c8 -10 9 -20 3 -29 -15 -24 -11 -56 8 -73 23 -21 39 -22
22 -2 -7 8 -8 15 -3 15 12 0 14 38 3 45 -5 3 -7 12 -4 20 3 8 -4 19 -18 26
-20 11 -21 10 -11 -2z"/>
<path d="M3100 828 c0 -19 2 -20 10 -8 13 19 13 30 0 30 -5 0 -10 -10 -10 -22z"/>
<path d="M3108 766 c-6 -33 3 -45 26 -36 14 4 16 9 8 14 -7 4 -12 16 -12 27 0
27 -17 24 -22 -5z"/>
<path d="M1502 735 c-8 -17 -20 -25 -37 -25 -32 0 -32 -15 -1 -35 26 -18 56
-81 56 -120 0 -13 5 -27 11 -31 8 -5 10 2 6 22 -3 16 1 44 9 63 22 52 18 104
-9 129 l-24 22 -11 -25z"/>
<path d="M3255 748 c-5 -5 -19 -15 -30 -23 -11 -7 -17 -16 -13 -20 4 -4 19 5
34 19 16 14 26 27 24 29 -3 3 -9 1 -15 -5z"/>
<path d="M2995 650 c27 -12 43 -12 25 0 -8 5 -22 9 -30 9 -10 0 -8 -3 5 -9z"/>
<path d="M5180 350 c0 -5 5 -10 11 -10 5 0 7 5 4 10 -3 6 -8 10 -11 10 -2 0
-4 -4 -4 -10z"/>
<path d="M2690 333 c0 -5 9 -18 20 -28 11 -10 20 -15 20 -11 0 4 -9 16 -20 28
-11 12 -20 17 -20 11z"/>
<path d="M2751 273 c7 -10 15 -20 16 -22 2 -2 3 3 3 11 0 9 -7 19 -16 22 -15
6 -15 4 -3 -11z"/>
<path d="M5045 190 c-3 -5 -1 -10 4 -10 6 0 11 5 11 10 0 6 -2 10 -4 10 -3 0
-8 -4 -11 -10z"/>
</g>
</svg>
